<?xml version="1.0" encoding="UTF-8" standalone="no"?>
<!-- Created with Inkscape (http://www.inkscape.org/) -->
<svg
   xmlns:svg="http://www.w3.org/2000/svg"
   xmlns="http://www.w3.org/2000/svg"
   version="1.0"
   width="496.06299"
   height="265.74802"
   id="svg2">
  <defs
     id="defs4">
    <marker
       refX="0"
       refY="0"
       orient="auto"
       style="overflow:visible"
       id="StopL">
      <path
         d="M 0,5.65 L 0,-5.65"
         transform="scale(0.8,0.8)"
         style="fill:none;fill-opacity:0.75;fill-rule:evenodd;stroke:#000000;stroke-width:1pt"
         id="path7288" />
    </marker>
  </defs>
  <path
     d="M 70.866142,94.526654 C 81.82917,100.85616 88.582674,112.55358 88.582673,125.21259 C 88.582673,137.87161 81.829168,149.56902 70.866139,155.89853"
     style="color:#000000;fill:none;fill-opacity:1;fill-rule:evenodd;stroke:#e53030;stroke-width:2.0622046;stroke-linecap:round;stroke-linejoin:miter;marker:none;marker-start:none;marker-mid:none;marker-end:none;stroke-miterlimit:4;stroke-dashoffset:0;stroke-opacity:1;visibility:visible;display:inline;overflow:visible"
     id="path3547" />
  <path
     d="M 88.582679,63.840715 C 110.50874,76.499734 124.01575,99.894561 124.01574,125.21259 C 124.01574,150.53063 110.50873,173.92545 88.582673,186.58447"
     style="color:#000000;fill:none;fill-opacity:1;fill-rule:evenodd;stroke:#e53030;stroke-width:2.0622046;stroke-linecap:round;stroke-linejoin:miter;marker:none;marker-start:none;marker-mid:none;marker-end:none;stroke-miterlimit:4;stroke-dashoffset:0;stroke-opacity:1;visibility:visible;display:inline;overflow:visible"
     id="path3549" />
  <path
     d="M 125.66699,47.490324 C 147.21928,67.599305 159.454,95.754661 159.44881,125.2313 C 159.44363,154.70794 147.19899,182.85899 125.63963,202.96038"
     style="color:#000000;fill:none;fill-opacity:1;fill-rule:evenodd;stroke:#e53030;stroke-width:2.0622046;stroke-linecap:round;stroke-linejoin:miter;marker:none;marker-start:none;marker-mid:none;marker-end:none;stroke-miterlimit:4;stroke-dashoffset:0;stroke-opacity:1;visibility:visible;display:inline;overflow:visible"
     id="path3551" />
  <path
     d="M 171.6152,47.405506 C 185.55268,68.626095 193.22848,92.655479 194.64243,116.96988 C 196.37534,146.76902 188.70275,176.99627 171.62437,203.00572"
     style="color:#000000;fill:none;fill-opacity:1;fill-rule:evenodd;stroke:#e53030;stroke-width:2.0622046;stroke-linecap:round;stroke-linejoin:miter;marker:none;marker-start:none;marker-mid:none;marker-end:none;stroke-miterlimit:4;stroke-dashoffset:0;stroke-opacity:1;visibility:visible;display:inline;overflow:visible"
     id="path3553" />
  <path
     d="M 212.41566,47.611777 C 236.29341,96.617898 236.28078,153.88806 212.38142,202.88365"
     style="color:#000000;fill:none;fill-opacity:1;fill-rule:evenodd;stroke:#e53030;stroke-width:2.0622046;stroke-linecap:round;stroke-linejoin:miter;marker:none;marker-start:none;marker-mid:none;marker-end:none;stroke-miterlimit:4;stroke-dashoffset:0;stroke-opacity:1;visibility:visible;display:inline;overflow:visible"
     id="path3555" />
  <path
     d="M 251.09833,47.660091 C 270.6393,97.537391 270.63097,152.9531 251.07503,202.82453"
     style="color:#000000;fill:none;fill-opacity:1;fill-rule:evenodd;stroke:#e53030;stroke-width:2.0622046;stroke-linecap:round;stroke-linejoin:miter;marker:none;marker-start:none;marker-mid:none;marker-end:none;stroke-miterlimit:4;stroke-dashoffset:0;stroke-opacity:1;visibility:visible;display:inline;overflow:visible"
     id="path3557" />
  <path
     d="M 288.72092,47.586699 C 305.33881,98.017029 305.33438,152.44919 288.70828,202.87681"
     style="color:#000000;fill:none;fill-opacity:1;fill-rule:evenodd;stroke:#e53030;stroke-width:2.0622046;stroke-linecap:round;stroke-linejoin:miter;marker:none;marker-start:none;marker-mid:none;marker-end:none;stroke-miterlimit:4;stroke-dashoffset:0;stroke-opacity:1;visibility:visible;display:inline;overflow:visible"
     id="path3559" />
  <path
     d="M 325.8166,47.721485 C 340.2247,98.4191 340.21314,152.12969 325.78321,202.8211"
     style="color:#000000;fill:none;fill-opacity:1;fill-rule:evenodd;stroke:#e53030;stroke-width:2.0622046;stroke-linecap:round;stroke-linejoin:miter;marker:none;marker-start:none;marker-mid:none;marker-end:none;stroke-miterlimit:4;stroke-dashoffset:0;stroke-opacity:1;visibility:visible;display:inline;overflow:visible"
     id="path3561" />
  <path
     d="M 362.51058,47.807842 C 375.24302,98.695168 375.22587,151.9376 362.46063,202.81671"
     style="color:#000000;fill:none;fill-opacity:1;fill-rule:evenodd;stroke:#e53030;stroke-width:2.0622046;stroke-linecap:round;stroke-linejoin:miter;marker:none;marker-start:none;marker-mid:none;marker-end:none;stroke-miterlimit:4;stroke-dashoffset:0;stroke-opacity:1;visibility:visible;display:inline;overflow:visible"
     id="path3563" />
  <path
     d="M 398.85858,47.523714 C 410.34379,98.631932 410.35435,151.65091 398.88951,202.7637"
     style="color:#000000;fill:none;fill-opacity:1;fill-rule:evenodd;stroke:#e53030;stroke-width:2.0622046;stroke-linecap:round;stroke-linejoin:miter;marker:none;marker-start:none;marker-mid:none;marker-end:none;stroke-miterlimit:4;stroke-dashoffset:0;stroke-opacity:1;visibility:visible;display:inline;overflow:visible"
     id="path3565" />
  <path
     d="M 435.0621,47.375212 C 445.50758,98.626402 445.53067,151.45573 435.13001,202.71603"
     style="color:#000000;fill:none;fill-opacity:1;fill-rule:evenodd;stroke:#e53030;stroke-width:2.0622046;stroke-linecap:round;stroke-linejoin:miter;marker:none;marker-start:none;marker-mid:none;marker-end:none;stroke-miterlimit:4;stroke-dashoffset:0;stroke-opacity:1;visibility:visible;display:inline;overflow:visible"
     id="path3567" />
  <path
     d="M 53.152505,116.95573 C 70.869041,100.40946 70.869041,100.40946 70.869041,100.40946 L 70.869041,150.04827 L 70.869041,150.04827 L 53.152505,133.502"
     style="color:#000000;fill:#bababa;fill-opacity:1;fill-rule:evenodd;stroke:#000000;stroke-width:0.95118326px;stroke-linecap:butt;stroke-linejoin:miter;marker:none;marker-start:none;marker-mid:none;marker-end:none;stroke-miterlimit:4;stroke-dashoffset:0;stroke-opacity:1;visibility:visible;display:inline;overflow:visible"
     id="path2052" />
  <path
     d="M 35.433071,116.94376 L 53.152506,116.94376 L 53.152506,133.502 L 35.433071,133.502 L 35.433071,116.94376 z "
     style="fill:#bababa;fill-opacity:1;fill-rule:evenodd;stroke:#000000;stroke-width:0.95118326px;stroke-linecap:butt;stroke-linejoin:miter;stroke-opacity:1"
     id="sourcesquare" />
  <path
     d="M 439.37006,95.076654 C 428.40703,101.40616 421.65353,113.10358 421.65353,125.76259 C 421.65353,138.42161 428.40703,150.11902 439.37006,156.44853"
     style="color:#000000;fill:none;fill-opacity:1;fill-rule:evenodd;stroke:#00dc0d;stroke-width:0.99921262;stroke-linecap:round;stroke-linejoin:miter;marker:none;marker-start:none;marker-mid:none;marker-end:none;stroke-miterlimit:4;stroke-dasharray:7.9937008, 7.9937008;stroke-dashoffset:0;stroke-opacity:1;visibility:visible;display:inline;overflow:visible"
     id="path5042" />
  <path
     d="M 421.65352,64.390715 C 399.72746,77.049734 386.22045,100.44456 386.22046,125.76259 C 386.22046,151.08063 399.72747,174.47545 421.65353,187.13447"
     style="color:#000000;fill:none;fill-opacity:1;fill-rule:evenodd;stroke:#00dc0d;stroke-width:0.99921262;stroke-linecap:round;stroke-linejoin:miter;marker:none;marker-start:none;marker-mid:none;marker-end:none;stroke-miterlimit:4;stroke-dasharray:7.9937008, 7.9937008;stroke-dashoffset:0;stroke-opacity:1;visibility:visible;display:inline;overflow:visible"
     id="path5044" />
  <path
     d="M 384.56921,48.040324 C 363.01692,68.149305 350.7822,96.304661 350.78739,125.7813 C 350.79257,155.25794 363.03721,183.40899 384.59657,203.51038"
     style="color:#000000;fill:none;fill-opacity:1;fill-rule:evenodd;stroke:#00dc0d;stroke-width:0.99921262;stroke-linecap:round;stroke-linejoin:miter;marker:none;marker-start:none;marker-mid:none;marker-end:none;stroke-miterlimit:4;stroke-dasharray:7.9937008, 7.9937008;stroke-dashoffset:0;stroke-opacity:1;visibility:visible;display:inline;overflow:visible"
     id="path5046" />
  <path
     d="M 338.621,47.955506 C 307.60208,95.183529 307.59847,156.32404 338.61183,203.55572"
     style="color:#000000;fill:none;fill-opacity:1;fill-rule:evenodd;stroke:#00dc0d;stroke-width:0.99921262;stroke-linecap:round;stroke-linejoin:miter;marker:none;marker-start:none;marker-mid:none;marker-end:none;stroke-miterlimit:4;stroke-dasharray:7.9937008, 7.9937008;stroke-dashoffset:0;stroke-opacity:1;visibility:visible;display:inline;overflow:visible"
     id="path5048" />
  <path
     d="M 297.82054,48.161777 C 273.94279,97.167898 273.95542,154.43806 297.85478,203.43365"
     style="color:#000000;fill:none;fill-opacity:1;fill-rule:evenodd;stroke:#00dc0d;stroke-width:0.99921262;stroke-linecap:round;stroke-linejoin:miter;marker:none;marker-start:none;marker-mid:none;marker-end:none;stroke-miterlimit:4;stroke-dasharray:7.9937008, 7.9937008;stroke-dashoffset:0;stroke-opacity:1;visibility:visible;display:inline;overflow:visible"
     id="path5050" />
  <path
     d="M 259.13787,48.210091 C 239.5969,98.087391 239.60523,153.5031 259.16117,203.37453"
     style="color:#000000;fill:none;fill-opacity:1;fill-rule:evenodd;stroke:#00dc0d;stroke-width:0.99921262;stroke-linecap:round;stroke-linejoin:miter;marker:none;marker-start:none;marker-mid:none;marker-end:none;stroke-miterlimit:4;stroke-dasharray:7.9937008, 7.9937008;stroke-dashoffset:0;stroke-opacity:1;visibility:visible;display:inline;overflow:visible"
     id="path5052" />
  <path
     d="M 221.51528,48.136699 C 204.89739,98.567029 204.90182,152.99919 221.52792,203.42681"
     style="color:#000000;fill:none;fill-opacity:1;fill-rule:evenodd;stroke:#00dc0d;stroke-width:0.99921262;stroke-linecap:round;stroke-linejoin:miter;marker:none;marker-start:none;marker-mid:none;marker-end:none;stroke-miterlimit:4;stroke-dasharray:7.9937008, 7.9937008;stroke-dashoffset:0;stroke-opacity:1;visibility:visible;display:inline;overflow:visible"
     id="path5054" />
  <path
     d="M 184.4196,48.271485 C 170.0115,98.9691 170.02306,152.67969 184.45299,203.3711"
     style="color:#000000;fill:none;fill-opacity:1;fill-rule:evenodd;stroke:#00dc0d;stroke-width:0.99921262;stroke-linecap:round;stroke-linejoin:miter;marker:none;marker-start:none;marker-mid:none;marker-end:none;stroke-miterlimit:4;stroke-dasharray:7.9937008, 7.9937008;stroke-dashoffset:0;stroke-opacity:1;visibility:visible;display:inline;overflow:visible"
     id="path5056" />
  <path
     d="M 147.72562,48.357842 C 134.99318,99.245168 135.01033,152.4876 147.77557,203.36671"
     style="color:#000000;fill:none;fill-opacity:1;fill-rule:evenodd;stroke:#00dc0d;stroke-width:0.99921262;stroke-linecap:round;stroke-linejoin:miter;marker:none;marker-start:none;marker-mid:none;marker-end:none;stroke-miterlimit:4;stroke-dasharray:7.9937008, 7.9937008;stroke-dashoffset:0;stroke-opacity:1;visibility:visible;display:inline;overflow:visible"
     id="path5058" />
  <path
     d="M 111.37762,48.073714 C 99.89241,99.181932 99.88185,152.20091 111.34669,203.3137"
     style="color:#000000;fill:none;fill-opacity:1;fill-rule:evenodd;stroke:#00dc0d;stroke-width:0.99921262;stroke-linecap:round;stroke-linejoin:miter;marker:none;marker-start:none;marker-mid:none;marker-end:none;stroke-miterlimit:4;stroke-dasharray:7.9937008, 7.9937008;stroke-dashoffset:0;stroke-opacity:1;visibility:visible;display:inline;overflow:visible"
     id="path5060" />
  <path
     d="M 75.1741,47.925212 C 64.72862,99.176402 64.70553,152.00573 75.10619,203.26603"
     style="color:#000000;fill:none;fill-opacity:1;fill-rule:evenodd;stroke:#00dc0d;stroke-width:0.99921262;stroke-linecap:round;stroke-linejoin:miter;marker:none;marker-start:none;marker-mid:none;marker-end:none;stroke-miterlimit:4;stroke-dasharray:7.9937008, 7.9937008;stroke-dashoffset:0;stroke-opacity:1;visibility:visible;display:inline;overflow:visible"
     id="path5062" />
  <path
     d="M 468.94309,131.60773 C 465.02518,138.32993 456.42219,140.60035 449.71458,136.68237 C 443.00696,132.76437 440.7276,124.13746 444.62,117.40036 C 448.5124,110.66326 457.1067,108.36001 463.82914,112.25237 C 470.55156,116.14473 472.86361,124.76289 468.99679,131.51479"
     style="color:#000000;fill:#2d37e9;fill-opacity:1;fill-rule:evenodd;stroke:none;stroke-width:0.99900001;stroke-linecap:round;stroke-linejoin:miter;marker:none;marker-start:none;marker-mid:none;marker-end:none;stroke-miterlimit:4;stroke-dashoffset:0;stroke-opacity:1;visibility:visible;display:inline;overflow:visible"
     id="path5790" />
  <path
     d="M 183.94386,223.84396 L 245.38885,223.84396 L 267.39131,223.84396 L 267.39131,223.84396"
     style="color:#000000;fill:none;fill-opacity:1;fill-rule:evenodd;stroke:#e53030;stroke-width:9.26844501;stroke-linecap:butt;stroke-linejoin:miter;marker:none;marker-start:none;marker-mid:none;marker-end:none;stroke-miterlimit:4;stroke-dashoffset:0;stroke-opacity:1;visibility:visible;display:inline;overflow:visible"
     id="path6520" />
  <path
     d="M 267.94205,223.84396 L 267.94205,209.5462 L 294.09449,223.84396 L 267.94205,238.14173 L 267.94205,223.84396 z "
     style="color:#000000;fill:#e53030;fill-opacity:1;fill-rule:evenodd;stroke:#e53030;stroke-width:2.25083208;stroke-linecap:round;stroke-linejoin:miter;marker:none;marker-start:none;marker-mid:none;marker-end:none;stroke-miterlimit:4;stroke-dashoffset:0;stroke-opacity:1;visibility:visible;display:inline;overflow:visible"
     id="path8117" />
  <path
     d="M 290.8938,26.12456 L 207.44635,26.12456 L 207.44635,26.12456"
     style="color:#000000;fill:#00dc0d;fill-opacity:1;fill-rule:evenodd;stroke:#00dc0d;stroke-width:9.26844501;stroke-linecap:butt;stroke-linejoin:miter;marker:none;marker-start:none;marker-mid:none;marker-end:none;stroke-miterlimit:4;stroke-dashoffset:0;stroke-opacity:1;visibility:visible;display:inline;overflow:visible"
     id="path8125" />
  <path
     d="M 206.89561,26.12456 L 206.89561,11.8268 L 180.74317,26.12456 L 206.89561,40.42233 L 206.89561,26.12456 z "
     style="color:#000000;fill:#00dc0d;fill-opacity:1;fill-rule:evenodd;stroke:#00dc0d;stroke-width:2.25083208;stroke-linecap:round;stroke-linejoin:miter;marker:none;marker-start:none;marker-mid:none;marker-end:none;stroke-miterlimit:4;stroke-dashoffset:0;stroke-opacity:1;visibility:visible;display:inline;overflow:visible"
     id="path8127" />
  <path
     d="M 63.779528,242.59842 L 450,242.59842 L 450,242.59842"
     style="fill:none;fill-opacity:0.75;fill-rule:evenodd;stroke:#000000;stroke-width:1.35354328;stroke-linecap:butt;stroke-linejoin:miter;marker-start:url(#StopL);marker-end:url(#StopL);stroke-miterlimit:4;stroke-opacity:1"
     id="path9595" />
  <g
     style="display:inline"
     id="layer3">
    <text
       x="264.6781"
       y="216.28786"
       style="font-size:12px;font-style:normal;font-variant:normal;font-weight:normal;font-stretch:normal;text-align:end;line-height:125%;writing-mode:lr-tb;text-anchor:end;fill:#000000;fill-opacity:1;stroke:none;stroke-width:1px;stroke-linecap:butt;stroke-linejoin:miter;stroke-opacity:1;font-family:Verdana"
       id="text10356"
       xml:space="preserve"><tspan
         x="264.6781"
         y="216.28786"
         id="tspan10358">original wave</tspan></text>
    <text
       x="209.93793"
       y="40.173225"
       style="font-size:12px;font-style:normal;font-variant:normal;font-weight:normal;font-stretch:normal;text-align:start;line-height:125%;writing-mode:lr-tb;text-anchor:start;fill:#000000;fill-opacity:1;stroke:none;stroke-width:1px;stroke-linecap:butt;stroke-linejoin:miter;stroke-opacity:1;font-family:Verdana"
       id="text10360"
       xml:space="preserve"><tspan
         x="209.93793"
         y="40.173225"
         id="tspan10362">reflected wave</tspan></text>
    <path
       d="M 8.348793,146.60017 C 8.3487855,146.94002 8.269684,147.27596 8.1114883,147.60799 C 7.9532781,147.94002 7.7315986,148.22127 7.4464493,148.45174 C 7.133943,148.70174 6.7696855,148.89705 6.3536758,149.03767 C 5.9376551,149.1783 5.4366791,149.24861 4.8507462,149.24861 C 4.2218365,149.24861 3.6564074,149.19002 3.1544571,149.07283 C 2.6525022,148.95564 2.1417605,148.78181 1.6222305,148.55135 L 1.6222305,147.09822 L 1.7042618,147.09822 C 2.1456667,147.46541 2.6554318,147.74861 3.2335587,147.94783 C 3.8116807,148.14705 4.3546489,148.24666 4.8624649,148.24666 C 5.5812102,148.24666 6.1407799,148.11189 6.5411758,147.84236 C 6.9415604,147.57283 7.1417555,147.21346 7.1417618,146.76424 C 7.1417555,146.37752 7.047029,146.09236 6.8575821,145.90877 C 6.6681231,145.72518 6.3800375,145.5826 5.9933243,145.48103 C 5.7003507,145.40291 5.3829682,145.33846 5.0411758,145.28767 C 4.6993751,145.2369 4.3370708,145.17244 3.9542618,145.09431 C 3.1808219,144.93026 2.6075803,144.64998 2.2345352,144.25349 C 1.8614873,143.85702 1.6749641,143.34041 1.6749649,142.70369 C 1.6749641,141.97323 1.9835575,141.3746 2.6007462,140.90779 C 3.2179313,140.441 4.0011336,140.2076 4.9503555,140.2076 C 5.5636321,140.2076 6.1261315,140.2662 6.6378555,140.38338 C 7.149568,140.50057 7.6026925,140.6451 7.9972305,140.81697 L 7.9972305,142.18806 L 7.9151993,142.18806 C 7.5831613,141.90682 7.1466383,141.67342 6.605629,141.48787 C 6.0646081,141.30233 5.5108977,141.20956 4.9444962,141.20955 C 4.3233989,141.20956 3.824376,141.33846 3.4474258,141.59627 C 3.0704705,141.85409 2.8819941,142.18612 2.8819962,142.59236 C 2.8819941,142.95565 2.975744,143.2408 3.1632462,143.44783 C 3.3507436,143.65487 3.6808214,143.81307 4.1534805,143.92244 C 4.403477,143.97713 4.7589454,144.04354 5.2198868,144.12166 C 5.6808194,144.19979 6.071444,144.27987 6.3917618,144.36189 C 7.0401931,144.53377 7.5284738,144.79354 7.8566055,145.14119 C 8.1847232,145.48885 8.3487855,145.97518 8.348793,146.60017 L 8.348793,146.60017 z M 15.602699,145.93221 L 10.780434,145.93221 C 10.780432,146.33455 10.840979,146.68514 10.962074,146.98396 C 11.083166,147.28279 11.249181,147.52791 11.460121,147.71931 C 11.663244,147.90682 11.904454,148.04744 12.183754,148.14119 C 12.463047,148.23494 12.770664,148.28182 13.106606,148.28181 C 13.551914,148.28182 14.000155,148.19295 14.451332,148.01521 C 14.902498,147.83748 15.223787,147.66268 15.415199,147.4908 L 15.473793,147.4908 L 15.473793,148.69197 C 15.102693,148.84822 14.723787,148.97908 14.337074,149.08455 C 13.950351,149.19002 13.544101,149.24275 13.118324,149.24275 C 12.032384,149.24275 11.184728,148.94881 10.575356,148.36092 C 9.9659796,147.77303 9.6612924,146.93807 9.661293,145.85603 C 9.6612924,144.78573 9.9532843,143.93612 10.53727,143.30721 C 11.121252,142.67831 11.889806,142.36385 12.842934,142.36385 C 13.725741,142.36385 14.406405,142.62166 14.884926,143.13728 C 15.363435,143.65291 15.602693,144.38533 15.602699,145.33455 L 15.602699,145.93221 z M 14.530434,145.08846 C 14.526522,144.51033 14.381014,144.06307 14.09391,143.74666 C 13.806796,143.43026 13.370273,143.27205 12.78434,143.27205 C 12.194493,143.27205 11.724767,143.44588 11.37516,143.79353 C 11.025549,144.14119 10.827307,144.57283 10.780434,145.08846 L 14.530434,145.08846 z M 22.745277,149.09041 L 21.643715,149.09041 L 21.643715,145.36385 C 21.643709,145.06307 21.626131,144.78084 21.590981,144.51717 C 21.555819,144.2535 21.491366,144.04744 21.397621,143.899 C 21.29996,143.73494 21.159335,143.61287 20.975746,143.53279 C 20.792148,143.45272 20.553867,143.41268 20.260902,143.41267 C 19.960117,143.41268 19.645665,143.4869 19.317543,143.63533 C 18.989415,143.78377 18.674962,143.97323 18.374184,144.20369 L 18.374184,149.09041 L 17.272621,149.09041 L 17.272621,142.54549 L 18.374184,142.54549 L 18.374184,143.27205 C 18.717931,142.9869 19.0734,142.76424 19.44059,142.60408 C 19.807774,142.44393 20.184727,142.36385 20.571449,142.36385 C 21.278475,142.36385 21.817537,142.57674 22.188637,143.00252 C 22.559724,143.4283 22.745271,144.04159 22.745277,144.84236 L 22.745277,149.09041 z M 30.174965,149.09041 L 29.073402,149.09041 L 29.073402,148.40486 C 28.756991,148.6783 28.426913,148.89119 28.083168,149.04353 C 27.739414,149.19588 27.366368,149.27205 26.964027,149.27205 C 26.182775,149.27205 25.562658,148.97127 25.103676,148.36971 C 24.644691,147.76814 24.415199,146.93416 24.415199,145.86775 C 24.415199,145.31307 24.4943,144.81893 24.652504,144.38533 C 24.810706,143.95174 25.024573,143.5826 25.294106,143.27791 C 25.559729,142.98104 25.869299,142.75448 26.222816,142.59822 C 26.576329,142.44198 26.94254,142.36385 27.321449,142.36385 C 27.665195,142.36385 27.969883,142.39999 28.235512,142.47224 C 28.501132,142.54452 28.780429,142.65682 29.073402,142.80916 L 29.073402,139.97322 L 30.174965,139.97322 L 30.174965,149.09041 z M 29.073402,147.47908 L 29.073402,143.72322 C 28.776522,143.59041 28.510898,143.49862 28.276527,143.44783 C 28.042148,143.39705 27.786289,143.37166 27.508949,143.37166 C 26.891759,143.37166 26.41129,143.58651 26.067543,144.01619 C 25.723791,144.44588 25.551916,145.05526 25.551918,145.84431 C 25.551916,146.62166 25.684729,147.21248 25.950356,147.61678 C 26.215978,148.02107 26.641759,148.22322 27.227699,148.22322 C 27.540196,148.22322 27.856601,148.15389 28.176918,148.01521 C 28.497226,147.87654 28.796054,147.69783 29.073402,147.47908 L 29.073402,147.47908 z M 37.821449,145.93221 L 32.999184,145.93221 C 32.999182,146.33455 33.059729,146.68514 33.180824,146.98396 C 33.301916,147.28279 33.467931,147.52791 33.678871,147.71931 C 33.881994,147.90682 34.123204,148.04744 34.402504,148.14119 C 34.681797,148.23494 34.989414,148.28182 35.325356,148.28181 C 35.770664,148.28182 36.218905,148.19295 36.670082,148.01521 C 37.121248,147.83748 37.442537,147.66268 37.633949,147.4908 L 37.692543,147.4908 L 37.692543,148.69197 C 37.321443,148.84822 36.942537,148.97908 36.555824,149.08455 C 36.169101,149.19002 35.762851,149.24275 35.337074,149.24275 C 34.251134,149.24275 33.403478,148.94881 32.794106,148.36092 C 32.18473,147.77303 31.880042,146.93807 31.880043,145.85603 C 31.880042,144.78573 32.172034,143.93612 32.75602,143.30721 C 33.340002,142.67831 34.108556,142.36385 35.061684,142.36385 C 35.944491,142.36385 36.625155,142.62166 37.103676,143.13728 C 37.582185,143.65291 37.821443,144.38533 37.821449,145.33455 L 37.821449,145.93221 z M 36.749184,145.08846 C 36.745272,144.51033 36.599764,144.06307 36.31266,143.74666 C 36.025546,143.43026 35.589023,143.27205 35.00309,143.27205 C 34.413243,143.27205 33.943517,143.44588 33.59391,143.79353 C 33.244299,144.14119 33.046057,144.57283 32.999184,145.08846 L 36.749184,145.08846 z M 43.575356,143.74666 L 43.516762,143.74666 C 43.352694,143.7076 43.193515,143.67928 43.039223,143.6617 C 42.884921,143.64412 42.702304,143.63534 42.491371,143.63533 C 42.151524,143.63534 41.823399,143.71053 41.506996,143.86092 C 41.190587,144.01131 40.8859,144.20565 40.592934,144.44392 L 40.592934,149.09041 L 39.491371,149.09041 L 39.491371,142.54549 L 40.592934,142.54549 L 40.592934,143.51228 C 41.030431,143.16073 41.416173,142.9117 41.75016,142.76521 C 42.084141,142.61874 42.424961,142.54549 42.772621,142.54549 C 42.964023,142.54549 43.102695,142.55038 43.188637,142.56013 C 43.274569,142.56991 43.403476,142.58846 43.575356,142.6158 L 43.575356,143.74666 z M 48.579262,139.97322 L 44.37809,150.87166 L 43.364418,150.87166 L 47.548012,139.97322 L 48.579262,139.97322 z M 9.2276993,164.09041 L 7.7218399,164.09041 L 4.8038712,160.62166 L 3.1691055,160.62166 L 3.1691055,164.09041 L 2.0089493,164.09041 L 2.0089493,155.3658 L 4.4523087,155.3658 C 4.9796483,155.36581 5.4191009,155.39999 5.770668,155.46834 C 6.1222252,155.53671 6.4386312,155.65878 6.7198868,155.83455 C 7.0362868,156.03378 7.2833569,156.28475 7.4610977,156.58748 C 7.6388253,156.89022 7.7276924,157.27401 7.7276993,157.73885 C 7.7276924,158.36776 7.5694894,158.89412 7.2530899,159.31795 C 6.9366776,159.74178 6.5011311,160.06112 5.9464493,160.27596 L 9.2276993,164.09041 z M 6.5148087,157.82088 C 6.514803,157.57088 6.4708577,157.3492 6.3829727,157.15584 C 6.2950766,156.96249 6.149569,156.7994 5.9464493,156.66658 C 5.7784756,156.55331 5.579257,156.47421 5.348793,156.42928 C 5.11832,156.38436 4.8468359,156.3619 4.5343399,156.36189 L 3.1691055,156.36189 L 3.1691055,159.65486 L 4.3409805,159.65486 C 4.7081642,159.65487 5.0284763,159.62264 5.301918,159.55818 C 5.5753508,159.49373 5.8077724,159.37362 5.9991837,159.19783 C 6.1749596,159.03377 6.3048422,158.8453 6.3888321,158.6324 C 6.4728108,158.41952 6.514803,158.14901 6.5148087,157.82088 L 6.5148087,157.82088 z M 15.743324,160.93221 L 10.921059,160.93221 C 10.921057,161.33455 10.981604,161.68514 11.102699,161.98396 C 11.223791,162.28279 11.389806,162.52791 11.600746,162.71931 C 11.803869,162.90682 12.045079,163.04744 12.324379,163.14119 C 12.603672,163.23494 12.911289,163.28182 13.247231,163.28181 C 13.692539,163.28182 14.14078,163.19295 14.591957,163.01521 C 15.043123,162.83748 15.364412,162.66268 15.555824,162.4908 L 15.614418,162.4908 L 15.614418,163.69197 C 15.243318,163.84822 14.864412,163.97908 14.477699,164.08455 C 14.090976,164.19002 13.684726,164.24275 13.258949,164.24275 C 12.173009,164.24275 11.325353,163.94881 10.715981,163.36092 C 10.106605,162.77303 9.8019174,161.93807 9.801918,160.85603 C 9.8019174,159.78573 10.093909,158.93612 10.677895,158.30721 C 11.261877,157.67831 12.030431,157.36385 12.983559,157.36385 C 13.866366,157.36385 14.54703,157.62166 15.025551,158.13728 C 15.50406,158.65291 15.743318,159.38533 15.743324,160.33455 L 15.743324,160.93221 z M 14.671059,160.08846 C 14.667147,159.51033 14.521639,159.06307 14.234535,158.74666 C 13.947421,158.43026 13.510898,158.27205 12.924965,158.27205 C 12.335118,158.27205 11.865392,158.44588 11.515785,158.79353 C 11.166174,159.14119 10.967932,159.57283 10.921059,160.08846 L 14.671059,160.08846 z M 22.25309,163.68025 C 21.885897,163.85603 21.537264,163.99275 21.207191,164.09041 C 20.877109,164.18806 20.526523,164.23689 20.155434,164.23689 C 19.682774,164.23689 19.249181,164.16756 18.854652,164.02888 C 18.460119,163.89021 18.122229,163.68025 17.840981,163.399 C 17.555823,163.11775 17.33512,162.76228 17.178871,162.3326 C 17.02262,161.90291 16.944496,161.40096 16.944496,160.82674 C 16.944496,159.75643 17.238441,158.91659 17.826332,158.30721 C 18.414221,157.69784 19.190587,157.39315 20.155434,157.39314 C 20.530429,157.39315 20.898593,157.44588 21.259926,157.55135 C 21.621249,157.65682 21.952303,157.78573 22.25309,157.93806 L 22.25309,159.16267 L 22.194496,159.16267 C 21.858553,158.90096 21.511874,158.69979 21.154457,158.55916 C 20.797031,158.41854 20.448398,158.34823 20.108559,158.34822 C 19.483556,158.34823 18.990392,158.55819 18.629066,158.9781 C 18.267736,159.39803 18.087073,160.01424 18.087074,160.82674 C 18.087073,161.6158 18.26383,162.22225 18.617348,162.64607 C 18.970861,163.0699 19.467931,163.28182 20.108559,163.28181 C 20.331211,163.28182 20.557773,163.25252 20.788246,163.19392 C 21.01871,163.13533 21.225741,163.05916 21.40934,162.96541 C 21.569491,162.88338 21.719881,162.79646 21.860512,162.70467 C 22.001131,162.61287 22.112459,162.53377 22.194496,162.46736 L 22.25309,162.46736 L 22.25309,163.68025 z M 29.149574,160.93221 L 24.327309,160.93221 C 24.327307,161.33455 24.387854,161.68514 24.508949,161.98396 C 24.630041,162.28279 24.796056,162.52791 25.006996,162.71931 C 25.210119,162.90682 25.451329,163.04744 25.730629,163.14119 C 26.009922,163.23494 26.317539,163.28182 26.653481,163.28181 C 27.098789,163.28182 27.54703,163.19295 27.998207,163.01521 C 28.449373,162.83748 28.770662,162.66268 28.962074,162.4908 L 29.020668,162.4908 L 29.020668,163.69197 C 28.649568,163.84822 28.270662,163.97908 27.883949,164.08455 C 27.497226,164.19002 27.090976,164.24275 26.665199,164.24275 C 25.579259,164.24275 24.731603,163.94881 24.122231,163.36092 C 23.512855,162.77303 23.208167,161.93807 23.208168,160.85603 C 23.208167,159.78573 23.500159,158.93612 24.084145,158.30721 C 24.668127,157.67831 25.436681,157.36385 26.389809,157.36385 C 27.272616,157.36385 27.95328,157.62166 28.431801,158.13728 C 28.91031,158.65291 29.149568,159.38533 29.149574,160.33455 L 29.149574,160.93221 z M 28.077309,160.08846 C 28.073397,159.51033 27.927889,159.06307 27.640785,158.74666 C 27.353671,158.43026 26.917148,158.27205 26.331215,158.27205 C 25.741368,158.27205 25.271642,158.44588 24.922035,158.79353 C 24.572424,159.14119 24.374182,159.57283 24.327309,160.08846 L 28.077309,160.08846 z M 32.00309,156.44978 L 30.760902,156.44978 L 30.760902,155.30721 L 32.00309,155.30721 L 32.00309,156.44978 z M 31.932777,164.09041 L 30.831215,164.09041 L 30.831215,157.54549 L 31.932777,157.54549 L 31.932777,164.09041 z M 39.78434,157.54549 L 37.135902,164.09041 L 36.028481,164.09041 L 33.397621,157.54549 L 34.592934,157.54549 L 36.620277,162.75447 L 38.630043,157.54549 L 39.78434,157.54549 z M 46.704262,160.93221 L 41.881996,160.93221 C 41.881994,161.33455 41.942541,161.68514 42.063637,161.98396 C 42.184728,162.28279 42.350744,162.52791 42.561684,162.71931 C 42.764806,162.90682 43.006017,163.04744 43.285316,163.14119 C 43.56461,163.23494 43.872227,163.28182 44.208168,163.28181 C 44.653476,163.28182 45.101718,163.19295 45.552895,163.01521 C 46.004061,162.83748 46.325349,162.66268 46.516762,162.4908 L 46.575356,162.4908 L 46.575356,163.69197 C 46.204256,163.84822 45.82535,163.97908 45.438637,164.08455 C 45.051913,164.19002 44.645664,164.24275 44.219887,164.24275 C 43.133946,164.24275 42.286291,163.94881 41.676918,163.36092 C 41.067542,162.77303 40.762855,161.93807 40.762856,160.85603 C 40.762855,159.78573 41.054847,158.93612 41.638832,158.30721 C 42.222814,157.67831 42.991368,157.36385 43.944496,157.36385 C 44.827304,157.36385 45.507967,157.62166 45.986488,158.13728 C 46.464998,158.65291 46.704255,159.38533 46.704262,160.33455 L 46.704262,160.93221 z M 45.631996,160.08846 C 45.628084,159.51033 45.482577,159.06307 45.195473,158.74666 C 44.908359,158.43026 44.471836,158.27205 43.885902,158.27205 C 43.296056,158.27205 42.826329,158.44588 42.476723,158.79353 C 42.127111,159.14119 41.928869,159.57283 41.881996,160.08846 L 45.631996,160.08846 z M 52.458168,158.74666 L 52.399574,158.74666 C 52.235507,158.7076 52.076327,158.67928 51.922035,158.6617 C 51.767734,158.64412 51.585117,158.63534 51.374184,158.63533 C 51.034336,158.63534 50.706211,158.71053 50.389809,158.86092 C 50.0734,159.01131 49.768712,159.20565 49.475746,159.44392 L 49.475746,164.09041 L 48.374184,164.09041 L 48.374184,157.54549 L 49.475746,157.54549 L 49.475746,158.51228 C 49.913244,158.16073 50.298985,157.9117 50.632973,157.76521 C 50.966953,157.61874 51.307773,157.54549 51.655434,157.54549 C 51.846835,157.54549 51.985507,157.55038 52.071449,157.56013 C 52.157382,157.56991 52.286288,157.58846 52.458168,157.6158 L 52.458168,158.74666 z "
       style="font-size:12px;font-style:normal;font-variant:normal;font-weight:normal;font-stretch:normal;text-align:start;line-height:125%;writing-mode:lr-tb;text-anchor:start;fill:#000000;fill-opacity:1;stroke:none;stroke-width:1px;stroke-linecap:butt;stroke-linejoin:miter;stroke-opacity:1;font-family:Verdana"
       id="text10364" />
    <text
       x="468.92728"
       y="154.08136"
       style="font-size:12px;font-style:normal;font-variant:normal;font-weight:normal;font-stretch:normal;text-align:center;line-height:125%;writing-mode:lr-tb;text-anchor:middle;fill:#000000;fill-opacity:1;stroke:none;stroke-width:1px;stroke-linecap:butt;stroke-linejoin:miter;stroke-opacity:1;font-family:Verdana"
       id="text10370"
       xml:space="preserve"><tspan
         x="468.92728"
         y="154.08136"
         id="tspan10372">Object</tspan></text>
    <text
       x="230.22156"
       y="255.2487"
       style="font-size:12px;font-style:normal;font-variant:normal;font-weight:normal;font-stretch:normal;text-align:center;line-height:125%;writing-mode:lr-tb;text-anchor:middle;fill:#000000;fill-opacity:1;stroke:none;stroke-width:1px;stroke-linecap:butt;stroke-linejoin:miter;stroke-opacity:1;font-family:Verdana"
       id="text10374"
       xml:space="preserve"><tspan
         x="230.22156"
         y="255.2487"
         id="tspan10376">distance <tspan
   style="font-size:12px;font-style:italic;font-variant:normal;font-weight:normal;font-stretch:normal;text-align:center;line-height:125%;writing-mode:lr-tb;text-anchor:middle;font-family:Verdana"
   id="tspan10378">r</tspan></tspan></text>
  </g>
</svg>
